# xmcd
# 
# Track frame offsets:
#     150
#     15717
#     34890
#     49225
#     68352
#     89580
#     112327
#     129315
#     146712
#     166087
# 
# Disc length: 2499
# 
# Revision: 3
# Processed by: cddbd v1.5.2PL0 Copyright (c) Steve Scherf et al.
# Submitted via: BonkEnc v1.0.5
# 
DISCID=8809c10a
DTITLE=Roomful Of Blues - Roomful Of Christmas
DYEAR=1997
DGENRE=Christmas/Holiday
TTITLE0=Christmas Celebration 
TTITLE1=I Told Santa Claus
TTITLE2=The Christmas Song
TTITLE3=White Christmas
TTITLE4=Have Your Self A Merry Little Christmas
TTITLE5=Good Morning Blues
TTITLE6=Let It Snow
TTITLE7=Run, Rudolph, Run
TTITLE8=I Want You With Me Christmas
TTITLE9=I Want To Spend Christmas With You
EXTD=
EXTT0=
EXTT1=
EXTT2=
EXTT3=
EXTT4=
EXTT5=
EXTT6=
EXTT7=
EXTT8=
EXTT9=
PLAYORDER=
